<?xml version="1.0" encoding="UTF-8" standalone="no"?>
<svg width="263px" height="137px" viewBox="0 0 263 137" version="1.1" xmlns="http://www.w3.org/2000/svg" xmlns:xlink="http://www.w3.org/1999/xlink" xmlns:sketch="http://www.bohemiancoding.com/sketch/ns">
    <!-- Generator: Sketch 3.2.2 (9983) - http://www.bohemiancoding.com/sketch -->
    <title>Logo_Gendalf</title>
    <desc>Created with Sketch.</desc>
    <defs>
        <path id="path-1" d="M0,0.048 L262.451,0.048 L262.451,136.94 L0,136.94"></path>
    </defs>
    <g id="Page-1" stroke="none" stroke-width="1" fill="none" fill-rule="evenodd" sketch:type="MSPage">
        <g id="Logo_Gendalf" sketch:type="MSLayerGroup">
            <path d="M94.939,87.191 L94.939,98.13 C91.991,100.146 87.181,101.62 83.302,101.62 C74.885,101.62 68.679,95.686 68.679,87.696 C68.679,79.744 75.08,73.848 83.845,73.848 C87.996,73.848 92.457,75.439 95.327,77.96 L90.75,83.507 C88.888,81.722 86.173,80.558 83.807,80.558 C79.889,80.558 76.941,83.623 76.941,87.696 C76.941,91.846 79.928,94.871 83.884,94.871 C85.009,94.871 86.522,94.483 87.996,93.824 L87.996,87.191 L94.939,87.191" id="Fill-1" fill="#303432" sketch:type="MSShapeGroup"></path>
            <path d="M111.854,82.149 L108.519,91.031 L115.113,91.031 L111.854,82.149 L111.854,82.149 Z M106.269,96.927 L104.64,101.271 L96.34,101.271 L107.937,74.081 L116.238,74.081 L127.447,101.271 L118.836,101.271 L117.246,96.927 L106.269,96.927 L106.269,96.927 Z" id="Fill-2" fill="#303432" sketch:type="MSShapeGroup"></path>
            <path d="M148.359,101.271 L136.839,86.144 L136.839,101.271 L129.43,101.271 L129.43,74.081 L136.335,74.081 L147.855,89.286 L147.855,74.081 L155.224,74.081 L155.224,101.271 L148.359,101.271" id="Fill-3" fill="#303432" sketch:type="MSShapeGroup"></path>
            <path d="M167.873,94.949 L171.946,94.949 C175.631,94.949 178.113,92.078 178.113,87.734 C178.113,83.351 175.437,80.442 171.558,80.442 L167.873,80.442 L167.873,94.949 L167.873,94.949 Z M171.713,74.081 C180.518,74.081 186.336,79.472 186.336,87.657 C186.336,95.841 180.402,101.271 171.442,101.271 L159.805,101.271 L159.805,74.081 L171.713,74.081 L171.713,74.081 Z" id="Fill-4" fill="#303432" sketch:type="MSShapeGroup"></path>
            <path d="M201.508,82.149 L198.172,91.031 L204.765,91.031 L201.508,82.149 L201.508,82.149 Z M195.922,96.927 L194.293,101.271 L185.992,101.271 L197.59,74.081 L205.89,74.081 L217.1,101.271 L208.489,101.271 L206.899,96.927 L195.922,96.927 L195.922,96.927 Z" id="Fill-5" fill="#303432" sketch:type="MSShapeGroup"></path>
            <path d="M238.554,94.522 L238.554,101.271 L219.083,101.271 L219.083,74.081 L227.151,74.081 L227.151,94.522 L238.554,94.522" id="Fill-6" fill="#303432" sketch:type="MSShapeGroup"></path>
            <g id="Group-10">
                <mask id="mask-2" sketch:name="Clip 8" fill="white">
                    <use xlink:href="#path-1"></use>
                </mask>
                <g id="Clip-8"></g>
                <path d="M249.418,80.287 L249.418,85.718 L261.52,85.718 L261.52,91.924 L249.418,91.924 L249.418,101.271 L241.35,101.271 L241.35,74.081 L262.451,74.081 L262.451,80.287 L249.418,80.287" id="Fill-7" fill="#303432" sketch:type="MSShapeGroup" mask="url(#mask-2)"></path>
                <path d="M59.03,97.786 L54.507,82.679 L49.84,77.639 L52.092,77.719 L51.333,74.279 L58.084,75.825 L54.873,59.235 L51.301,57.916 L88.667,61.399 L56.933,47.586 L44.987,0.048 L32.083,41.805 L10.64,52.253 L17.583,52.138 L0,62.893 L22.773,58.039 L15.68,83.986 L19.484,94.691 L23.147,105.639 L32.853,111.053 L50.773,137 L52.08,116.653 L59.03,97.786" id="Fill-9" fill="#DB2F54" sketch:type="MSShapeGroup" mask="url(#mask-2)"></path>
            </g>
        </g>
    </g>
</svg>